<svg width="16" height="16" viewBox="0 0 16 16" fill="none" xmlns="http://www.w3.org/2000/svg">
    <path fill-rule="evenodd" clip-rule="evenodd" d="M1 0C0.5 0 0 1.05556 0 1.5V3C0 3.38889 0.5 5 1 5C1.5 5 2 3.44445 2 3V1.5C2 1.05556 1.5 0 1 0ZM1 8C1.55228 8 2 7.5523 2 7C2 6.4477 1.55228 6 1 6C0.44772 6 0 6.4477 0 7C0 7.5523 0.44772 8 1 8Z" fill="#FF4748"/>
    <path fill-rule="evenodd" clip-rule="evenodd" d="M1 0C0.5 0 0 1.05556 0 1.5V3C0 3.38889 0.5 5 1 5C1.5 5 2 3.44445 2 3V1.5C2 1.05556 1.5 0 1 0ZM1 8C1.55228 8 2 7.5523 2 7C2 6.4477 1.55228 6 1 6C0.44772 6 0 6.4477 0 7C0 7.5523 0.44772 8 1 8Z" fill="#FF4748"/>
</svg>
