<svg width="16" height="16" viewBox="0 0 16 16" fill="none" xmlns="http://www.w3.org/2000/svg">
    <path d="M4.75 15C4.75 15.1381 4.86193 15.25 5 15.25H15C15.1381 15.25 15.25 15.1381 15.25 15V3C15.25 2.57031 15 2 14.5127 2H15C15.5523 2 16 2.44772 16 3V15C16 15.5523 15.5523 16 15 16H5C4.44771 16 4 15.5523 4 15V9.71389C4.26246 9.92143 4.51304 10.1457 4.75 10.386V15Z" fill="#A6AD18"/>
    <path fill-rule="evenodd" clip-rule="evenodd" d="M16 7V16H7V10.2323C7.3065 9.79524 7.6449 9.38344 8.0117 9L11 9V8H9.11388C9.59226 7.62403 10.1037 7.28916 10.6429 7H16ZM8 10H11V11H8V10ZM15 10H12V11H15V10ZM12 9V8H15V9H12ZM15 12H12V13H15V12ZM8 12H11V13H8V12ZM11 15V14H8V15H11ZM12 14H15V15H12V14Z" fill="#A6AD18"/>
    <path d="M2.80127 3.27624V3.27624C3.7911 2.10048 5.37689 1.61192 6.85677 2.02678L7.94471 2.33177L8.58471 2.02372C10.1243 1.28271 11.9441 1.43167 13.3426 2.41317V2.41317L13.0508 2.354C11.3558 2.01025 9.6168 2.69354 8.60916 4.09926L8.57195 4.15117C8.52609 4.21514 8.43397 4.22311 8.37782 4.16796V4.16796C6.91173 2.72807 4.70008 2.36231 2.84847 3.25353L2.80127 3.27624Z" fill="#A6AD18"/>
    <path d="M-2.02878 8.06491V8.06491C-0.620018 6.25783 1.74125 5.48147 3.94752 6.09996L5.1399 6.43423L6.05062 5.93659C8.22118 4.75054 10.8514 4.77454 13 6V6L12.5963 5.95824C10.0014 5.68984 7.47074 6.87766 6.01925 9.04527L5.92822 9.18122C5.86941 9.26904 5.74408 9.27906 5.67207 9.2017V9.2017C3.73206 7.11755 0.625645 6.61447 -1.873 7.97979L-2.02878 8.06491Z" fill="#A6AD18"/>
</svg>
