<svg width="16" height="16" viewBox="0 0 16 16" fill="none" xmlns="http://www.w3.org/2000/svg">
    <path class="ecsSvgThemeRedPdf" d="M16 3.3125C16 2.4375 15.625 2 14.875 2H6.16432C6.296 2.23007 6.49648 2.6331 6.5291 2.875H15.25V15.125H4.75V10.1037C4.49806 10.1718 4.24795 10.2475 4 10.3302V14.6875C4 15.5625 4.375 16 5.125 16H14.875C15.625 16 16 15.5625 16 14.6875V3.3125Z"/>
    <path class="ecsSvgThemeRedPdf" fill-rule="evenodd" clip-rule="evenodd" d="M1.55867 10.2425C1.24787 10.2112 1.00159 10.0104 0.868289 9.76815C0.733896 9.52393 0.696465 9.20459 0.848962 8.92177L0.853478 8.9134C1.04653 8.58584 1.32547 8.35557 1.61708 8.17667C1.86092 8.02707 2.12759 7.90575 2.36954 7.79567L2.41423 7.77533C2.83504 6.85355 3.11417 5.85485 3.30022 4.84383C3.30615 4.7484 3.32929 4.65318 3.3458 4.58523C3.34919 4.57132 3.35229 4.55854 3.35491 4.54714C3.36867 4.48734 3.37494 4.44663 3.37518 4.41495C3.33494 4.35021 3.29122 4.28211 3.24616 4.21191C3.14264 4.05065 3.032 3.87831 2.94008 3.71026C2.79402 3.44323 2.66929 3.14535 2.63508 2.80765C2.52996 2.26536 2.98538 1.75086 3.51819 1.75176C3.84058 1.72893 4.12398 1.90879 4.28487 2.14228L4.2908 2.15088L4.29598 2.15995C4.48644 2.4927 4.54538 2.8527 4.55352 3.19693C4.55995 3.46931 4.53419 3.74878 4.51072 4.00328L4.50231 4.09512C5.16877 5.04083 6.00433 5.87682 6.91437 6.61212C7.00726 6.60994 7.10211 6.60565 7.2006 6.60117L7.20436 6.601C7.3314 6.59522 7.46441 6.58917 7.59791 6.58801C7.8641 6.58571 8.14685 6.60243 8.42715 6.68517C8.7987 6.76524 9.20843 7.06087 9.24533 7.5385C9.2985 8.04359 8.89261 8.54 8.36502 8.54785L8.35135 8.54805C7.97686 8.53315 7.64433 8.40218 7.34887 8.23734C7.10449 8.10101 6.87247 7.93322 6.66098 7.78029L6.61737 7.74876C5.46581 7.87309 4.33446 8.17448 3.25262 8.60282C3.20511 8.68959 3.16004 8.77777 3.11309 8.86966C3.08575 8.92316 3.05777 8.97791 3.02828 9.03438C2.9365 9.21017 2.8343 9.39397 2.70786 9.56507L2.70573 9.56795C2.59462 9.71389 2.44779 9.89598 2.26632 10.0334C2.08203 10.1729 1.84367 10.2799 1.55867 10.2425ZM3.75974 7.28175C3.95913 6.70382 4.12491 6.11452 4.2552 5.51658C4.6518 5.97972 5.07547 6.41813 5.52469 6.83037C4.92843 6.9439 4.3373 7.09547 3.75974 7.28175ZM3.43745 2.69528V2.67207C3.43745 2.55331 3.5941 2.51037 3.65466 2.61252C3.6974 2.68462 3.71995 2.76689 3.71995 2.85069V3.39454L3.48619 2.9089C3.45411 2.84226 3.43745 2.76924 3.43745 2.69528ZM1.73581 9.40589L1.75592 9.39428C1.81997 9.3573 1.87487 9.30637 1.91655 9.24527L2.22024 8.8L1.74926 9.07192C1.67668 9.11383 1.61671 9.17449 1.57564 9.24755C1.51745 9.35107 1.63297 9.46527 1.73581 9.40589ZM8.36682 7.52497L8.38692 7.53658C8.48977 7.59596 8.44863 7.7531 8.32988 7.75447C8.24608 7.75543 8.16356 7.73383 8.09098 7.69192L7.62 7.42L8.15745 7.46037C8.2312 7.46591 8.30276 7.48799 8.36682 7.52497Z"/>
</svg>
