<svg width="16" height="16" viewBox="0 0 16 16" fill="none" xmlns="http://www.w3.org/2000/svg">
    <path d="M4 14.6875C4 15.5625 4.375 16 5.125 16H14.875C15.625 16 16 15.5625 16 14.6875V3.3125C16 2.4375 15.625 2 14.875 2H9.28034C9.45414 2.27583 9.59578 2.56972 9.70527 2.875H15.25V15.125H4.75V12H4V14.6875Z" fill="#E94F23"/>
    <path fill-rule="evenodd" clip-rule="evenodd" d="M2 2H5.75C8.72978 2.33481 8.72978 6.66519 5.75 7H3.5V10H2V2ZM3.5 5.5V3.5H5.5C6.67754 3.63853 6.67754 5.36147 5.5 5.5H3.5Z" fill="#E94F23"/>
</svg>
