<svg width="16" height="16" viewBox="0 0 16 16" fill="none" xmlns="http://www.w3.org/2000/svg">
    <path class="ecsSvgTheme" d="M4.75 15C4.75 15.1381 4.86193 15.25 5 15.25H15C15.1381 15.25 15.25 15.1381 15.25 15V3C15.25 2.86193 15.1381 2.75 15 2.75H12.3119C12.1838 2.49006 12.0393 2.23962 11.8799 2H15C15.5523 2 16 2.44772 16 3V15C16 15.5523 15.5523 16 15 16H5C4.44772 16 4 15.5523 4 15V14.7573C4.24663 14.8004 4.50909 14.7676 4.75 14.6412V15Z"/>
    <path d="M11 5.71429C11 3.11066 8.88936 1 6.28574 1C6.01803 1 5.75553 1.02231 5.5 1.06519L5.62121 8.70695L7.24514 10.3309C9.38872 9.88771 11 7.98917 11 5.71429Z" fill="#F2523F"/>
    <path class="ecsSvgThemeGreen" d="M6.28574 5.71429L5.50002 1.06519C3.65883 1.37408 2.17953 2.75021 1.71997 4.53572L6.28574 5.71429Z"/>
    <path d="M1.71993 4.53572C1.62298 4.91242 1.57141 5.30733 1.57141 5.71429C1.57141 6.26529 1.66594 6.79421 1.83966 7.28572L6.2857 5.71429L1.71993 4.53572Z" fill="#FFDD2A"/>
    <path d="M1.83972 7.28571L6.28576 5.71428L5.65743 8.74314L5.04859 8.1343C4.29263 7.37834 3.00006 7.91374 3.00006 8.98283V9.09492C2.48506 8.59429 2.08406 7.977 1.83972 7.28571Z" fill="#5A5FE8"/>
    <path class="ecsSvgThemeGreen" d="M0 8.27057C0 8.16018 0.152341 8.13085 0.193337 8.23334V8.23334C0.680534 9.45133 1.86019 10.25 3.17201 10.25H4V8.98284C4 8.80465 4.21543 8.71542 4.34142 8.84141L6.88385 11.3838C6.94622 11.4462 6.94158 11.5487 6.87382 11.6051L4.32804 13.7266C4.19777 13.8352 4 13.7426 4 13.573V12.25H3C1.34315 12.25 0 10.9068 0 9.24999V8.27057Z"/>
</svg>
