<svg width="16" height="16" viewBox="0 0 16 16" fill="none" xmlns="http://www.w3.org/2000/svg">
    <path class="ecsSvgTheme" d="M4.75 15C4.75 15.1381 4.86193 15.25 5 15.25H15C15.1381 15.25 15.25 15.1381 15.25 15V3C15.25 2.86193 15.1381 2.75 15 2.75H14V2H15C15.5523 2 16 2.44772 16 3V15C16 15.5523 15.5523 16 15 16H5C4.44772 16 4 15.5523 4 15V12H4.75V15Z"/>
    <path fill-rule="evenodd" clip-rule="evenodd" d="M3 3H10H11V9H10H3H2V3H3ZM10 8H3V4H10V8Z" fill="#D6CEA6"/>
    <path d="M5 2H1V5H5V2Z" fill="#FCC800"/>
    <path d="M5 7H1V10H5V7Z" fill="#F295D2"/>
    <path d="M12 2H8V5H12V2Z" fill="#B0CB11"/>
    <path d="M10.3333 7H9.66667C8.74619 7 8 7.67157 8 8.5C8 9.32843 8.74619 10 9.66667 10H10.3333C11.2538 10 12 9.32843 12 8.5C12 7.67157 11.2538 7 10.3333 7Z" fill="#00B6DE"/>
</svg>
