<svg width="16" height="16" viewBox="0 0 16 16" fill="none" xmlns="http://www.w3.org/2000/svg">
    <path class="ecsSvgTheme" d="M4.75 15C4.75 15.1381 4.86193 15.25 5 15.25H15C15.1381 15.25 15.25 15.1381 15.25 15V3C15.25 2.86193 15.1381 2.75 15 2.75H8.32506L7.99525 2H15C15.5523 2 16 2.44772 16 3V15C16 15.5523 15.5523 16 15 16H5C4.44772 16 4 15.5523 4 15V12H4.75V15Z"/>
    <path class="ecsSvgTheme" fill-rule="evenodd" clip-rule="evenodd" d="M16 16V7H9.5625L10 8H11V10V11H7V16H16ZM12 8V9H15V8H12ZM12 11V10H15V11H12ZM12 12V13H15V12H12ZM12 15V14H15V15H12ZM11 15V14H8V15H11ZM11 12V13H8V12H11Z"/>
    <path class="ecsSvgTheme" d="M5.82422 7.36133H2.5498L2.16016 8.26367C2.03255 8.56445 1.96875 8.81283 1.96875 9.00879C1.96875 9.26855 2.07357 9.45996 2.2832 9.58301C2.40625 9.65592 2.70931 9.71061 3.19238 9.74707V10H0.109375V9.74707C0.442057 9.69694 0.715495 9.56022 0.929688 9.33691C1.14388 9.10905 1.4082 8.64193 1.72266 7.93555L5.03809 0.539062H5.16797L8.51074 8.14062C8.82975 8.86068 9.0918 9.31413 9.29688 9.50098C9.45182 9.64225 9.67057 9.72428 9.95312 9.74707V10H5.46875V9.74707H5.65332C6.01335 9.74707 6.26628 9.69694 6.41211 9.59668C6.51237 9.52376 6.5625 9.41895 6.5625 9.28223C6.5625 9.2002 6.54883 9.11589 6.52148 9.0293C6.51237 8.98828 6.44401 8.81738 6.31641 8.5166L5.82422 7.36133ZM5.5918 6.85547L4.21094 3.66309L2.78906 6.85547H5.5918Z"/>
</svg>
