<svg width="16" height="16" viewBox="0 0 16 16" fill="none" xmlns="http://www.w3.org/2000/svg">
    <path d="M4.75 15C4.75 15.1381 4.86193 15.25 5 15.25H15C15.1381 15.25 15.25 15.1381 15.25 15V3C15.25 2.86193 15.1381 2.75 15 2.75H11.7962L12 2H15C15.5523 2 16 2.44772 16 3V15C16 15.5523 15.5523 16 15 16H5C4.44772 16 4 15.5523 4 15V11H4.75V15Z" fill="#0073BE"/>
    <path d="M3.47826 10H2.17391L0 2H1.30435L2.82609 7.6L4.34783 2H5.65217L7.17391 7.6L8.69565 2H10L7.82609 10H6.52174L5 4.4L3.47826 10Z" fill="#0073BE"/>
</svg>
