<svg width="16" height="16" viewBox="0 0 16 16" fill="none" xmlns="http://www.w3.org/2000/svg">
    <path class="ecsSvgTheme" d="M4.75 15C4.75 15.1381 4.86193 15.25 5 15.25H15C15.1381 15.25 15.25 15.1381 15.25 15V3C15.25 2.86193 15.1381 2.75 15 2.75H11V2H15C15.5523 2 16 2.44772 16 3V15C16 15.5523 15.5523 16 15 16H5C4.44772 16 4 15.5523 4 15V12.6632C4.27098 12.5345 4.5228 12.3719 4.75 12.1811V15Z"/>
    <path class="ecsSvgTheme" d="M9 2L3 3V5V8.08535C2.84361 8.03008 2.67532 8 2.5 8C1.67157 8 1 8.67157 1 9.5C1 10.3284 1.67157 11 2.5 11C3.32843 11 4 10.3284 4 9.5V4.83333L8 4.16667L7.98887 7.08147C7.83564 7.02867 7.67117 7 7.5 7C6.67157 7 6 7.67157 6 8.5C6 9.32843 6.67157 10 7.5 10C8.32843 10 9 9.32843 9 8.5V4V2Z"/>
</svg>
