<svg width="16" height="16" viewBox="0 0 16 16" fill="none" xmlns="http://www.w3.org/2000/svg">
    <path class="ecsSvgTheme" d="M4.75 15C4.75 15.1381 4.86193 15.25 5 15.25H15C15.1381 15.25 15.25 15.1381 15.25 15V3C15.25 2.86193 15.1381 2.75 15 2.75H12.2014C12.0648 2.48992 11.9124 2.23949 11.7453 2H15C15.5523 2 16 2.44772 16 3V15C16 15.5523 15.5523 16 15 16H5C4.44772 16 4 15.5523 4 15V12.7101C4.24466 12.7829 4.49493 12.8427 4.75 12.8887V15Z"/>
    <circle cx="6" cy="6" r="5" fill="#BADEFC"/>
    <path d="M8.76833 2.61446C8.50433 2.93086 8.86426 3.68703 8.76833 4.15182C8.64026 4.77169 8.15283 5.07433 8.46055 5.38197C8.62319 5.54495 9.08026 6.02351 10.9697 6.54208C11.0522 5.79794 10.9663 5.04478 10.7184 4.33831C10.4704 3.63184 10.0668 2.99012 9.53726 2.46064C9.45805 2.38144 9.3759 2.30682 9.2929 2.23387C9.09019 2.31709 8.91033 2.44759 8.76833 2.61446Z" fill="#06BD06"/>
    <path d="M2.00072 6.30448C2.30506 6.24603 2.58493 6.09782 2.80425 5.87895C3.02358 5.66007 3.17231 5.38056 3.23129 5.07642C3.33304 4.54618 3.25548 3.8221 3.53862 3.53906C3.91392 3.16389 4.96769 3.93924 5.69202 3.8467C6.33252 3.76332 6.6678 2.8204 6.76037 2.45357C6.8389 1.99411 6.84776 1.52545 6.78664 1.06336C6.04412 0.943956 5.28421 0.993759 4.56364 1.20904C3.84306 1.42433 3.18044 1.79954 2.62523 2.30666C2.07002 2.81377 1.63657 3.43971 1.35724 4.13773C1.07789 4.83575 0.959885 5.58783 1.01201 6.33782C1.34172 6.36636 1.67368 6.35517 2.00072 6.30448Z" fill="#06BD06"/>
    <path d="M7.72574 6.43286C7.13112 5.83843 6.0515 5.63626 5.72624 6.27904C4.94853 7.81637 4.00027 7.68844 4.15415 8.45709C4.34222 9.39752 6.94389 9.39252 7.87924 8.43166C8.12031 8.14466 8.23931 7.77466 8.2106 7.40096C8.18188 7.02728 8.00788 6.67973 7.72574 6.43286Z" fill="#06BD06"/>
</svg>
