<svg width="16" height="16" viewBox="0 0 16 16" fill="none" xmlns="http://www.w3.org/2000/svg">
    <path class="ecsSvgTheme" d="M4.75 15C4.75 15.1381 4.86193 15.25 5 15.25H15C15.1381 15.25 15.25 15.1381 15.25 15V3C15.25 2.86193 15.1381 2.75 15 2.75H10.5228C10.4615 2.49166 10.3787 2.24117 10.2746 2H15C15.5523 2 16 2.44772 16 3V15C16 15.5523 15.5523 16 15 16H5C4.44772 16 4 15.5523 4 15V13.0828C4.24121 13.1479 4.49202 13.186 4.75 13.1957V15Z"/>
    <path class="ecsSvgTheme" d="M8.6553 3.91113C8.6553 4.82715 8.3408 5.56999 7.7119 6.13965C7.083 6.70931 6.24447 7.03516 5.19629 7.11719L5.15527 8.0469H4.54688V5.3877C5.20768 5.33301 5.72493 5.12565 6.09863 4.76562C6.47233 4.40104 6.65918 3.90658 6.65918 3.28223C6.65918 2.78548 6.52702 2.389 6.2627 2.09277C6.00293 1.79199 5.65202 1.6416 5.20996 1.6416C5.02311 1.6416 4.85677 1.66211 4.71094 1.70312C4.5651 1.73958 4.42383 1.79883 4.28711 1.88086C4.33268 2.02669 4.38509 2.21582 4.44434 2.44824C4.50814 2.67611 4.54004 2.88802 4.54004 3.08398C4.54004 3.40299 4.43522 3.65137 4.22559 3.8291C4.02051 4.00228 3.7334 4.08887 3.36426 4.08887C3.0179 4.08887 2.74447 3.97949 2.54395 3.76074C2.34798 3.54199 2.25 3.27311 2.25 2.9541C2.25 2.43001 2.5485 1.98568 3.14551 1.62109C3.74251 1.25651 4.46257 1.07422 5.30566 1.07422C6.30371 1.07422 7.1104 1.33398 7.7256 1.85352C8.3454 2.37305 8.6553 3.05892 8.6553 3.91113ZM6.19434 9.9336C6.19434 10.2799 6.06217 10.5785 5.79785 10.8291C5.53809 11.0752 5.23275 11.1982 4.88184 11.1982C4.52637 11.1982 4.21647 11.0752 3.95215 10.8291C3.69238 10.5785 3.5625 10.2799 3.5625 9.9336C3.5625 9.5872 3.69238 9.2887 3.95215 9.0381C4.21647 8.7829 4.52637 8.6553 4.88184 8.6553C5.23275 8.6553 5.53809 8.7829 5.79785 9.0381C6.06217 9.2887 6.19434 9.5872 6.19434 9.9336Z"/>
</svg>
