<svg width="16" height="16" viewBox="0 0 16 16" fill="none" xmlns="http://www.w3.org/2000/svg">
    <path class="ecsSvgThemeBlueODF" d="M4.75 15C4.75 15.1381 4.86193 15.25 5 15.25H15C15.1381 15.25 15.25 15.1381 15.25 15V3C15.25 2.57031 15 2 14.5127 2H15C15.5523 2 16 2.44772 16 3V15C16 15.5523 15.5523 16 15 16H5C4.44771 16 4 15.5523 4 15V9.71389C4.26246 9.92143 4.51304 10.1457 4.75 10.386V15Z"/>
    <path class="ecsSvgThemeBlueODF" d="M7.91624 14H13.3333C13.7015 14 14 13.7015 14 13.3333C14 12.9651 13.7015 12.6667 13.3333 12.6667H8.75L10.9464 10.7542C11.4041 10.3556 11.4041 9.64443 10.9464 9.24584L9.20129 7.7263C8.88085 7.94875 8.57647 8.1929 8.29025 8.45682L9.19639 9.24584C9.65414 9.64443 9.65414 10.3556 9.19639 10.7542L7.31456 12.3928C7.11472 12.5668 7 12.8188 7 13.0838C7 13.5898 7.41021 14 7.91624 14Z"/>
    <path class="ecsSvgThemeBlueODF" d="M13.3333 7.33334C13.7015 7.33334 14 7.03486 14 6.66667C14 6.41357 13.859 6.19341 13.6512 6.08051L12.122 6.43339C11.3047 6.622 10.5321 6.92783 9.82348 7.33334H13.3333Z"/>
    <path class="ecsSvgThemeBlueODF" d="M2.80127 3.27624V3.27624C3.7911 2.10048 5.37689 1.61192 6.85677 2.02678L7.94471 2.33177L8.58471 2.02372C10.1243 1.28271 11.9441 1.43167 13.3426 2.41317V2.41317L13.0508 2.354C11.3558 2.01025 9.6168 2.69354 8.60916 4.09926L8.57195 4.15117C8.52609 4.21514 8.43397 4.22311 8.37782 4.16796V4.16796C6.91173 2.72807 4.70008 2.36231 2.84847 3.25353L2.80127 3.27624Z"/>
    <path class="ecsSvgThemeBlueODF" d="M-2.02878 8.06491V8.06491C-0.620018 6.25783 1.74125 5.48147 3.94752 6.09996L5.1399 6.43423L6.05062 5.93659C8.22118 4.75054 10.8514 4.77454 13 6V6L12.5963 5.95824C10.0014 5.68984 7.47074 6.87766 6.01925 9.04527L5.92822 9.18122C5.86941 9.26904 5.74408 9.27906 5.67207 9.2017V9.2017C3.73206 7.11755 0.625645 6.61447 -1.873 7.97979L-2.02878 8.06491Z"/>
</svg>
