<svg width="16" height="16" viewBox="0 0 16 16" fill="none" xmlns="http://www.w3.org/2000/svg">
    <path class="ecsSvgTheme" d="M4.75 15C4.75 15.1381 4.86193 15.25 5 15.25H15C15.1381 15.25 15.25 15.1381 15.25 15V3C15.25 2.86193 15.1381 2.75 15 2.75H14V2H15C15.5523 2 16 2.44772 16 3V15C16 15.5523 15.5523 16 15 16H5C4.44772 16 4 15.5523 4 15V12H4.75V15Z"/>
    <path d="M1 3C1 2.44772 1.44772 2 2 2H11C11.5523 2 12 2.44772 12 3V8C12 9.10457 11.1046 10 10 10H3C1.89543 10 1 9.10457 1 8V3Z" fill="#669CDE"/>
    <rect x="1" y="3" width="11" height="6" fill="#77A6DF"/>
    <rect x="1" y="4" width="11" height="5" fill="#88B1E3"/>
    <rect x="1" y="5" width="11" height="4" fill="#9ABCE5"/>
    <rect x="1" y="6" width="11" height="3" fill="#ACC7E8"/>
    <rect x="1" y="7" width="11" height="2" fill="#BED2EB"/>
    <rect x="1" y="8" width="11" height="1" fill="#D1DDED"/>
    <path d="M2 10C1.44771 10 1 9.55228 1 9V9L2.40401 8.08101C3.44511 7.39956 4.74404 7.24142 5.91823 7.65315L7.72222 8.28571V8.28571C9.08393 8.83587 10.6053 8.84014 11.97 8.29762L12 8.28571V9.14286V9.14286C12 9.61624 11.6162 10 11.1429 10H2Z" fill="#55A91B"/>
    <path d="M6.5 4.5C6.06638 4.25984 6.2369 3.6 6.73259 3.6H6.96875L6.9979 3.56002C7.57218 2.77244 8.80884 3.0442 9 4V4L9.08511 3.95554C9.48646 3.74585 9.97862 3.83203 10.2848 4.16562L10.4436 4.33856C10.4811 4.37942 10.5225 4.41652 10.5673 4.44932V4.44932C11.1435 4.87192 10.9738 5.77366 10.2833 5.95779L10.2357 5.97047C10.1622 5.99007 10.0865 6 10.0104 6H6.86194C6.78769 6 6.71381 5.98947 6.64251 5.96873L6.49281 5.92518C5.77698 5.71694 5.78211 4.70101 6.5 4.5V4.5V4.5Z" fill="white"/>
</svg>
