<svg width="16" height="16" viewBox="0 0 16 16" fill="none" xmlns="http://www.w3.org/2000/svg">
    <path class="ecsSvgTheme" d="M4.75 15C4.75 15.1381 4.86193 15.25 5 15.25H15C15.1381 15.25 15.25 15.1381 15.25 15V3C15.25 2.86193 15.1381 2.75 15 2.75H12.3119C12.1838 2.49006 12.0393 2.23962 11.8799 2H15C15.5523 2 16 2.44772 16 3V15C16 15.5523 15.5523 16 15 16H5C4.44772 16 4 15.5523 4 15V14.7573C4.24663 14.8004 4.50909 14.7676 4.75 14.6412V15Z"/>
    <path class="ecsSvgTheme" fill-rule="evenodd" fill-opacity="0.4" clip-rule="evenodd" d="M10.9849 7.36931L9.59163 9.72837L8.28025 8.9505C8.00569 9.16613 7.69787 9.3425 7.36744 9.47444V10.4532L5.04852 8.1343C4.29255 7.37833 3 7.91377 3 8.98284V9.24332C2.58539 9.21106 2.19588 9.06303 1.87052 8.82568L1 7.31294L2.31891 6.54921C2.29216 6.36968 2.27368 6.18722 2.27368 6.00037C2.27368 5.79888 2.29459 5.60202 2.32547 5.40761L1.01605 4.62996L2.40863 2.27113L3.71903 3.04952C3.99404 2.83339 4.3014 2.65654 4.63186 2.52555V1H7.36744V2.52555C7.71175 2.66191 8.03025 2.84803 8.31525 3.0744L9.63319 2.31211L11 4.68801L9.68062 5.45079C9.70781 5.63032 9.72631 5.81229 9.72631 6.00012C9.72631 6.2021 9.70637 6.39797 9.6745 6.59214L10.9849 7.36931ZM7.33333 6C7.33333 6.73638 6.73638 7.33333 6 7.33333C5.26362 7.33333 4.66667 6.73638 4.66667 6C4.66667 5.26362 5.26362 4.66667 6 4.66667C6.73638 4.66667 7.33333 5.26362 7.33333 6Z"/>
    <path class="ecsSvgTheme" d="M10.1473 4.45908L8.99875 5.12306L9.06269 5.54453C9.08688 5.70401 9.10131 5.8531 9.10131 6.00013C9.10131 6.16073 9.0855 6.32196 9.05775 6.49096L8.98869 6.91204L10.1295 7.58862L9.37194 8.87138L8.23087 8.1945L7.89419 8.459C7.66787 8.63675 7.41225 8.78356 7.13563 8.894L6.74242 9.05106V9.82824L7.36744 10.4533V9.47444C7.69787 9.3425 8.00569 9.16613 8.28025 8.9505L9.59163 9.72837L10.9849 7.36931L9.6745 6.59214C9.70637 6.39797 9.72631 6.2021 9.72631 6.00013C9.72631 5.81229 9.70781 5.63032 9.68062 5.45079L11 4.68801L9.63319 2.31211L8.31525 3.0744C8.03025 2.84803 7.71175 2.66191 7.36744 2.52555V1H4.63186V2.52555C4.3014 2.65654 3.99404 2.83339 3.71903 3.04952L2.40863 2.27113L1.01605 4.62996L2.32547 5.40761C2.29459 5.60202 2.27368 5.79888 2.27368 6.00037C2.27368 6.18722 2.29216 6.36968 2.31891 6.54921L1 7.31294L1.87053 8.82569C2.19589 9.06304 2.58539 9.21106 3 9.24333V8.98285C3 8.82898 3.02678 8.68616 3.07487 8.55666L2.59646 8.83413L1.8526 7.5415L2.99968 6.87722L2.93708 6.45711C2.91314 6.29643 2.89868 6.14652 2.89868 6.00037C2.89868 5.84173 2.91515 5.67931 2.94273 5.50566L3.00927 5.0868L1.87117 4.41089L2.62824 3.12853L3.76828 3.80572L4.10521 3.54093C4.33261 3.36223 4.58742 3.21548 4.86217 3.10657L5.25686 2.95012V1.625H6.74242V2.95026L7.13729 3.10664C7.42319 3.21988 7.6885 3.37472 7.9265 3.56379L8.25975 3.82851L9.40381 3.16679L10.1473 4.45908Z"/>
    <path class="ecsSvgTheme" fill-rule="evenodd" clip-rule="evenodd" d="M6 7.33333C6.73638 7.33333 7.33333 6.73638 7.33333 6C7.33333 5.26362 6.73638 4.66667 6 4.66667C5.26362 4.66667 4.66667 5.26362 4.66667 6C4.66667 6.73638 5.26362 7.33333 6 7.33333ZM6 8C7.10457 8 8 7.10457 8 6C8 4.89543 7.10457 4 6 4C4.89543 4 4 4.89543 4 6C4 7.10457 4.89543 8 6 8Z"/>
    <path class="ecsSvgThemeGreen" d="M0 8.27057C0 8.16018 0.152341 8.13085 0.193337 8.23334C0.680534 9.45133 1.86019 10.25 3.17201 10.25H4V8.98284C4 8.80465 4.21543 8.71542 4.34142 8.84141L6.88385 11.3838C6.94622 11.4462 6.94158 11.5487 6.87382 11.6051L4.32804 13.7266C4.19777 13.8352 4 13.7426 4 13.573V12.25H3C1.34315 12.25 0 10.9068 0 9.24999V8.27057Z"/>
</svg>
