<svg width="16" height="16" viewBox="0 0 16 16" fill="none" xmlns="http://www.w3.org/2000/svg">
    <path class="ecsSvgThemeGreenExcel" d="M3.5 2H1.5L4 5.63636L1 10H3L5 7.09091L7 10H9L6 5.63636L8.5 2H6.5L5 4.18182L3.5 2Z"/>
    <path class="ecsSvgThemeGreenExcel" d="M4.75006 15C4.75006 15.1381 4.86199 15.25 5.00006 15.25H15.0001C15.1381 15.25 15.2501 15.1381 15.2501 15V3C15.2501 2.86193 15.1381 2.75 15.0001 2.75H10.4115L10.9271 2H15.0001C15.5523 2 16.0001 2.44772 16.0001 3V15C16.0001 15.5523 15.5523 16 15.0001 16H5.00006C4.44777 16 4.00006 15.5523 4.00006 15L4 11L4.75006 10.9848V15Z"/>
</svg>
