<svg viewBox="0 0 24 24" xmlns="http://www.w3.org/2000/svg">
    <style>
        .back{fill: #FFF;}
        .fore{fill: #4B4B4B;}
        [data-theme="dark"] {
        .back{fill: #363636;}
        .fore{fill: #CCCCCC;}
        }
    </style>
    <circle class="back" cx="12" cy="12" r="12"/>
    <path class="back" d="M12 19C15.866 19 19 15.866 19 12C19 8.13401 15.866 5 12 5C8.13401 5 5 8.13401 5 12C5 15.866 8.13401 19 12 19Z"/>
    <path class="fore" fill-rule="evenodd" clip-rule="evenodd" d="M9.59026 15.6699C9.48977 15.3523 9.39807 15.0222 9.31847 14.6815C9.12261 13.8433 9 12.9406 9 12C9 11.1831 9.09248 10.3949 9.24511 9.65251C10.0701 9.86023 11.0069 10 12 10C12.9931 10 13.9299 9.86023 14.7549 9.65251C15.0581 9.57617 15.3462 9.49066 15.6164 9.39953C16.7648 9.01229 17.5909 8.52372 17.8836 8.20747C18.1039 8.5492 18.2951 8.91128 18.4542 9.29024C18.9709 10.5209 19.1231 11.8688 18.9007 13.1749L19.7607 13.9421C20.1799 12.2669 20.0462 10.4988 19.3763 8.90313C18.6802 7.2452 17.4459 5.8701 15.8724 4.99971C14.299 4.12932 12.4782 3.81438 10.7038 4.10571C8.92947 4.39704 7.30499 5.27765 6.09247 6.60546C4.87996 7.93328 4.15013 9.63086 4.02074 11.4243C3.89135 13.2178 4.36993 15.0026 5.37928 16.4907C6.38864 17.9788 7.86989 19.0835 9.58407 19.6265C10.0483 19.7735 10.5222 19.8771 11 19.9373V18.7627C10.5303 18.0038 9.99058 16.9354 9.59026 15.6699ZM8.33009 14.4097C8.12455 13.6493 8 12.8398 8 12C8 11.0897 8.14636 10.2148 8.38361 9.39953C7.23518 9.01229 6.40907 8.52372 6.1164 8.20747C5.48366 9.18909 5.10308 10.3191 5.01815 11.4963C4.98453 11.9623 4.99781 12.4275 5.05623 12.8855C5.82167 13.3798 6.96047 13.9765 8.33009 14.4097ZM14.5634 8.85196C13.7861 8.94155 12.9171 9.00001 12 9.00001C11.0829 9.00001 10.2139 8.94155 9.43657 8.85196C9.87343 7.24975 10.5586 5.91696 11.1144 5.05625C11.7056 4.98085 12.3007 4.98166 12.8855 5.05625L13.309 5.1235C14.0326 5.26124 14.7349 5.51324 15.3884 5.87475C16.3793 6.4229 17.2165 7.19983 17.835 8.13315C17.485 8.30484 16.6008 8.55232 15.4005 8.73894C14.8524 7.2279 14.0211 5.96471 13.309 5.1235L12.8855 5.05625C13.4414 5.91696 14.1266 7.24975 14.5634 8.85196ZM6.20687 15.9293C7.09006 17.2314 8.38615 18.198 9.88606 18.6732C10.1512 18.7572 10.42 18.825 10.6909 18.8765C9.99496 18.0543 9.18507 16.8289 8.63704 15.363C7.17111 14.8149 5.94572 14.005 5.12349 13.3091C5.30093 14.2411 5.66719 15.1336 6.20687 15.9293ZM10.6909 5.12351C9.20668 5.40603 7.85188 6.16172 6.83091 7.27978C6.586 7.54798 6.3636 7.83342 6.16497 8.13315C6.51496 8.30484 7.39918 8.55232 8.59952 8.73894C9.14762 7.22791 9.97888 5.96471 10.6909 5.12351Z"/>
    <path class="fore" d="M14.2775 11.8962C14.6057 11.2464 15.247 11 16 11C16.753 11 17.3945 11.2464 17.7226 11.8962C17.9594 12.3652 17.9589 12.9284 17.9585 13.3041V13.3469C17.9585 14.0133 17.6252 14.7386 17.1226 15.3557L17.0054 15.4996L17.1404 15.6271C17.1842 15.6685 17.2722 15.7331 17.4537 15.8365C17.6311 15.9374 17.8707 16.0606 18.1999 16.2251C18.4763 16.3637 18.7285 16.4914 18.9337 16.6072C19.1286 16.7172 19.3265 16.8408 19.4648 16.979C19.7021 17.2165 19.8285 17.5317 19.8979 17.7861C19.9696 18.049 19.9972 18.3084 19.9999 18.492L20.0076 18.9994L11.9918 19L12.0001 18.4918C12.0031 18.3082 12.0309 18.0486 12.1026 17.7857C12.172 17.5315 12.298 17.2165 12.5351 16.9792C12.6733 16.8411 12.8714 16.7171 13.0664 16.6071C13.2716 16.4913 13.5232 16.3639 13.7997 16.2254C14.1288 16.0611 14.3687 15.9378 14.546 15.8368C14.7273 15.7335 14.8152 15.6688 14.859 15.6273L14.9944 15.4993L14.8775 15.3557C14.3753 14.739 14.0416 14.0133 14.0416 13.3469V13.3039C14.0412 12.9283 14.0406 12.3651 14.2775 11.8962Z"/>
</svg>
