<svg width="96" height="96" viewBox="0 0 96 96" fill="none" xmlns="http://www.w3.org/2000/svg">
<g filter="url(#filter0_d)">
<path fill-rule="evenodd" clip-rule="evenodd" d="M93 45C93 69.8528 72.8528 90 48 90C40.6332 90 33.6799 88.2298 27.5421 85.0916L3 90L7.90842 65.4579C4.7702 59.3202 3 52.3668 3 45C3 20.1472 23.1472 0 48 0C72.8528 0 93 20.1472 93 45Z" fill="white"/>
</g>
<path d="M87 45C87 66.5391 69.5391 84 48 84C40.8957 84 34.2351 82.1004 28.4983 78.7815L20.2537 80.4304L10.6485 82.3515L12.5696 72.7463L14.2185 64.5017C10.8996 58.7649 9 52.1043 9 45C9 23.4609 26.4609 6 48 6C69.5391 6 87 23.4609 87 45Z" fill="#E81E29"/>
<path fill-rule="evenodd" clip-rule="evenodd" d="M48 84C69.5391 84 87 66.5391 87 45C87 23.4609 69.5391 6 48 6C26.4609 6 9 23.4609 9 45C9 52.1043 10.8996 58.7649 14.2185 64.5017L10.6485 82.3515L28.4983 78.7815C34.2351 82.1004 40.8957 84 48 84Z" fill="url(#paint0_linear)" fill-opacity="0.2"/>
<path d="M55.2862 18C59.1344 18 62.1296 19.2411 63.6567 22.2647C64.8203 24.5702 64.8193 27.3897 64.8186 29.4666V29.6328C64.8186 32.9081 63.164 36.6009 60.5353 39.8275L59.2822 41.3675L60.7259 42.7316C61.0575 43.045 61.6232 43.4444 62.6237 44.0139C63.6104 44.5757 64.929 45.2532 66.7088 46.1426C68.2068 46.8932 69.5463 47.5722 70.6297 48.1837C71.6792 48.7758 72.6372 49.3845 73.2738 50.0208C74.3693 51.1176 74.9885 52.6169 75.343 53.9153C75.7047 55.2415 75.8436 56.555 75.8573 57.4697C75.8713 58.3879 75.1304 59.1401 74.2119 59.1401L66.5117 59.1405C66.0293 57.4749 65.096 55.1438 63.1983 53.2437L63.1949 53.2402C62.0199 52.0663 60.5182 51.1687 59.4433 50.5618C58.2323 49.8785 56.781 49.1448 55.2985 48.4018L55.2934 48.3992C54.3034 47.9045 53.4915 47.4928 52.8192 47.1413C54.8517 43.9234 56.2472 40.2252 56.2472 36.4899C56.252 34.5419 56.2619 30.2283 54.533 26.8035C52.9707 23.71 50.5693 21.8379 47.8813 20.801C49.5506 18.8343 52.1315 18 55.2862 18Z" fill="white"/>
<path fill-rule="evenodd" clip-rule="evenodd" d="M33.2016 29.122C34.7291 26.0982 37.7234 24.8569 41.5714 24.8569C45.4197 24.8569 48.4149 26.098 49.9419 29.1217C51.1058 31.4271 51.1047 34.2466 51.1038 36.3236C51.1038 36.3795 51.1038 36.4349 51.1038 36.4897C51.1038 39.765 49.4491 43.4578 46.8207 46.6844L45.5674 48.2244L47.0113 49.5886C47.3428 49.902 47.9085 50.3014 48.9088 50.8709C49.8957 51.4325 51.2144 52.11 52.9942 52.9994C54.4921 53.7502 55.8316 54.4291 56.915 55.0407C57.9645 55.6329 58.9225 56.2414 59.5591 56.8778C60.6546 57.9746 61.2738 59.4739 61.6283 60.7723C61.99 62.0985 62.1289 63.412 62.1426 64.3267C62.1566 65.2449 61.4157 65.9971 60.4972 65.9971L22.6458 65.9998C21.7264 65.9998 20.9852 65.2466 21.0002 64.327C21.0152 63.412 21.1554 62.0971 21.5175 60.7706C21.872 59.4722 22.4898 57.9735 23.584 56.8781C24.2207 56.2421 25.1788 55.6322 26.2282 55.0401C27.3113 54.4287 28.6488 53.7509 30.1473 53.0007C31.9265 52.1127 33.2463 51.4346 34.2328 50.8723C35.2327 50.3025 35.798 49.9027 36.1298 49.5879L37.5742 48.2221L36.3221 46.6838C33.6961 43.4594 32.0397 39.7645 32.0397 36.4892C32.0397 36.4343 32.0396 36.3789 32.0396 36.3229C32.0387 34.2462 32.0376 31.4266 33.2016 29.122Z" fill="white"/>
<defs>
<filter id="filter0_d" x="0" y="0" width="96" height="96" filterUnits="userSpaceOnUse" color-interpolation-filters="sRGB">
<feFlood flood-opacity="0" result="BackgroundImageFix"/>
<feColorMatrix in="SourceAlpha" type="matrix" values="0 0 0 0 0 0 0 0 0 0 0 0 0 0 0 0 0 0 127 0"/>
<feOffset dy="3"/>
<feGaussianBlur stdDeviation="1.5"/>
<feColorMatrix type="matrix" values="0 0 0 0 0 0 0 0 0 0 0 0 0 0 0 0 0 0 0.26 0"/>
<feBlend mode="normal" in2="BackgroundImageFix" result="effect1_dropShadow"/>
<feBlend mode="normal" in="SourceGraphic" in2="effect1_dropShadow" result="shape"/>
</filter>
<linearGradient id="paint0_linear" x1="48.3749" y1="4.5" x2="48.3749" y2="89.3208" gradientUnits="userSpaceOnUse">
<stop stop-color="white"/>
<stop offset="1" stop-color="white" stop-opacity="0"/>
</linearGradient>
</defs>
</svg>
