<svg width="24" height="24" viewBox="0 0 24 24" fill="none" xmlns="http://www.w3.org/2000/svg">
<path fill-rule="evenodd" clip-rule="evenodd" d="M24 12C24 18.6274 18.6274 24 12 24C10.0355 24 8.18129 23.5279 6.54456 22.6911L0 24L1.30891 17.4554C0.472052 15.8187 0 13.9645 0 12C0 5.37258 5.37258 0 12 0C18.6274 0 24 5.37258 24 12Z" fill="white"/>
<path d="M22.4 12C22.4 17.7437 17.7437 22.4 12 22.4C10.1055 22.4 8.32933 21.8934 6.79952 21.0084L4.60095 21.4481L2.03958 21.9604L2.55186 19.399L2.99157 17.2004C2.10653 15.6706 1.59998 13.8945 1.59998 12C1.59998 6.25621 6.25621 1.59998 12 1.59998C17.7437 1.59998 22.4 6.25621 22.4 12Z" fill="#E81E29"/>
<path fill-rule="evenodd" clip-rule="evenodd" d="M12 22.4C17.7437 22.4 22.4 17.7437 22.4 12C22.4 6.25621 17.7437 1.59998 12 1.59998C6.25621 1.59998 1.59998 6.25621 1.59998 12C1.59998 13.8945 2.10653 15.6706 2.99157 17.2004L2.03958 21.9604L6.79952 21.0084C8.32933 21.8934 10.1055 22.4 12 22.4Z" fill="url(#paint0_linear)" fill-opacity="0.2"/>
<path d="M14.143 4.5C15.2253 4.5 16.0677 4.84906 16.4972 5.69946C16.8245 6.34786 16.8242 7.14084 16.824 7.72499V7.77172C16.824 8.6929 16.3587 9.73151 15.6194 10.639L15.2669 11.0721L15.673 11.4558C15.7662 11.5439 15.9253 11.6562 16.2067 11.8164C16.4842 11.9744 16.8551 12.165 17.3556 12.4151C17.7769 12.6262 18.1537 12.8172 18.4584 12.9892C18.7536 13.1557 19.023 13.3269 19.2021 13.5059C19.5102 13.8143 19.6843 14.236 19.784 14.6012C19.8857 14.9742 19.9248 15.3436 19.9287 15.6009C19.9326 15.8591 19.7242 16.0707 19.4659 16.0707L17.3002 16.0708C17.1645 15.6023 16.902 14.9467 16.3683 14.4123L16.3674 14.4113C16.0369 14.0812 15.6145 13.8287 15.3122 13.658C14.9716 13.4658 14.5635 13.2595 14.1465 13.0505L14.1451 13.0498C13.8666 12.9107 13.6383 12.7948 13.4492 12.696C14.0208 11.791 14.4133 10.7508 14.4133 9.70029C14.4147 9.1524 14.4175 7.93921 13.9312 6.976C13.4918 6.10594 12.8164 5.57941 12.0604 5.28777C12.5299 4.73464 13.2558 4.5 14.143 4.5Z" fill="white"/>
<path fill-rule="evenodd" clip-rule="evenodd" d="M7.93171 7.62802C8.3613 6.77759 9.20345 6.42847 10.2857 6.42847C11.368 6.42847 12.2104 6.77753 12.6399 7.62792C12.9672 8.27633 12.9669 9.06931 12.9667 9.65346C12.9667 9.66918 12.9667 9.68477 12.9667 9.70019C12.9667 10.6214 12.5013 11.66 11.7621 12.5675L11.4096 13.0006L11.8157 13.3843C11.9089 13.4724 12.068 13.5847 12.3494 13.7449C12.6269 13.9028 12.9978 14.0934 13.4984 14.3435C13.9197 14.5547 14.2964 14.7456 14.6011 14.9177C14.8963 15.0842 15.1657 15.2554 15.3448 15.4343C15.6529 15.7428 15.827 16.1645 15.9267 16.5297C16.0284 16.9026 16.0675 17.2721 16.0714 17.5293C16.0753 17.7876 15.8669 17.9991 15.6086 17.9991L4.96289 17.9999C4.70429 17.9999 4.49583 17.7881 4.50006 17.5294C4.50428 17.2721 4.5437 16.9023 4.64556 16.5292C4.74525 16.164 4.919 15.7425 5.22676 15.4344C5.40584 15.2556 5.6753 15.084 5.97043 14.9175C6.27506 14.7455 6.65123 14.5549 7.07268 14.3439C7.57309 14.0942 7.94428 13.9034 8.22173 13.7453C8.50295 13.585 8.66195 13.4726 8.75526 13.3841L9.1615 12.9999L8.80933 12.5673C8.07079 11.6604 7.6049 10.6212 7.6049 9.70005C7.6049 9.68461 7.6049 9.66901 7.60489 9.65326C7.60464 9.06919 7.60433 8.27619 7.93171 7.62802Z" fill="white"/>
<defs>
<linearGradient id="paint0_linear" x1="12.0999" y1="1.19998" x2="12.0999" y2="23.8188" gradientUnits="userSpaceOnUse">
<stop stop-color="white"/>
<stop offset="1" stop-color="white" stop-opacity="0"/>
</linearGradient>
</defs>
</svg>
