<svg width="16" height="16" viewBox="0 0 16 16" fill="none" xmlns="http://www.w3.org/2000/svg">
    <style>
        .back{fill: #FFF;}
        .fore{fill: #4B4B4B;}
        [data-theme="dark"] {
        .back{fill: #363636;}
        .fore{fill: #CCCCCC;}
        }
    </style>
    <circle class="back" cx="8" cy="8" r="8"/>
    <path class="fore" fill-opacity="0.5" d="M10.5881 2C11.4134 2 12.0558 2.27132 12.3833 2.93233C12.6329 3.43633 12.6327 4.05271 12.6325 4.50676L12.6325 4.54308C12.6325 5.25911 12.2776 6.06641 11.7139 6.77179L11.4451 7.10845L11.7548 7.40665C11.8259 7.47517 11.9472 7.56249 12.1617 7.68699C12.3734 7.8098 12.6562 7.95791 13.0379 8.15234C13.3592 8.31644 13.6465 8.46489 13.8788 8.59855C14.1039 8.72802 14.3093 8.86111 14.4459 9.00022C14.6808 9.23999 14.8136 9.56776 14.8896 9.85159C14.9672 10.1415 14.997 10.4287 15 10.6286C15.0029 10.8294 14.8441 10.9938 14.6471 10.9938L12.9956 10.9939C12.8922 10.6298 12.692 10.1201 12.285 9.70475L12.2842 9.70398C12.0323 9.44738 11.7102 9.25112 11.4796 9.11848C11.2199 8.96908 10.9087 8.80866 10.5908 8.64625L10.5897 8.64568C10.3773 8.53753 10.2032 8.44752 10.059 8.37069C10.4949 7.6672 10.7942 6.85873 10.7942 6.04215C10.7952 5.61628 10.7974 4.67327 10.4266 3.92457C10.0915 3.24829 9.57648 2.83902 9 2.61233C9.358 2.18239 9.91152 2 10.5881 2Z"/>
    <path class="fore" fill-rule="evenodd" clip-rule="evenodd" fill-opacity="0.5" d="M5.66911 4.93298C6.00323 4.27154 6.65824 4 7.5 4C8.3418 4 8.99701 4.27149 9.33103 4.93291C9.58563 5.43723 9.5854 6.05399 9.58521 6.50832C9.5852 6.52056 9.5852 6.53267 9.5852 6.54467C9.5852 7.26114 9.22325 8.06895 8.64828 8.77477L8.37411 9.11163L8.68996 9.41003C8.76247 9.47859 8.88623 9.56596 9.10505 9.69053C9.32092 9.81342 9.60938 9.96163 9.99872 10.1562C10.3264 10.3204 10.6194 10.4689 10.8564 10.6027C11.086 10.7322 11.2955 10.8654 11.4348 11.0046C11.6744 11.2445 11.8099 11.5725 11.8874 11.8565C11.9665 12.1466 11.997 12.4339 12 12.634C12.003 12.8349 11.841 12.9994 11.64 12.9994L3.36003 13C3.15889 13 2.99676 12.8352 3.00005 12.6341C3.00333 12.4339 3.03399 12.1463 3.11321 11.8561C3.19075 11.5721 3.32589 11.2442 3.56526 11.0046C3.70454 10.8655 3.91412 10.7321 4.14366 10.6025C4.3806 10.4688 4.67317 10.3205 5.00097 10.1565C5.39018 9.96217 5.67888 9.81385 5.89468 9.69087C6.1134 9.56624 6.23706 9.47872 6.30965 9.40989L6.62561 9.11113L6.3517 8.77463C5.77728 8.06928 5.41492 7.26103 5.41492 6.54456C5.41492 6.53255 5.41492 6.52042 5.41491 6.50817C5.41472 6.05389 5.41447 5.43711 5.66911 4.93298Z"/>
</svg>
