<svg width="64" height="64" viewBox="0 0 64 64" fill="none" xmlns="http://www.w3.org/2000/svg">
    <path fill-rule="evenodd" clip-rule="evenodd" d="M23.8627 16.1466C25.3477 13.2068 28.2588 12 32 12C35.7413 12 38.6534 13.2066 40.1379 16.1463C41.2695 18.3877 41.2684 21.1288 41.2676 23.1481C41.2676 23.2025 41.2675 23.2563 41.2675 23.3096C41.2675 26.494 39.6589 30.0842 37.1034 33.2212L35.8849 34.7184L37.2887 36.0446C37.611 36.3493 38.161 36.7376 39.1336 37.2913C40.093 37.8374 41.375 38.4961 43.1054 39.3608C44.5618 40.0906 45.8642 40.7508 46.9174 41.3452C47.9377 41.9209 48.8689 42.5128 49.488 43.1315C50.5531 44.1978 51.1551 45.6555 51.4995 46.9177C51.8513 48.2069 51.9865 49.4841 51.9998 50.3733C52.0132 51.2662 51.2931 51.9972 50.4001 51.9973L13.6001 52C12.7062 52.0001 11.9856 51.2676 12.0002 50.3738C12.0148 49.4839 12.151 48.2056 12.5032 46.916C12.8478 45.6538 13.4484 44.1967 14.5123 43.1316C15.1313 42.5133 16.0628 41.9203 17.0829 41.3445C18.136 40.7502 19.4363 40.0912 20.8932 39.3621C22.623 38.4986 23.9061 37.8393 24.8652 37.2928C25.8373 36.7388 26.387 36.3499 26.7095 36.0439L28.1138 34.7161L26.8964 33.2206C24.3435 30.0857 22.733 26.4935 22.733 23.3092C22.733 23.2558 22.733 23.2019 22.7329 23.1474C22.7321 21.1284 22.731 18.3872 23.8627 16.1466Z" fill="#A0A0A0"/>
</svg>
